<?xml version="1.0" standalone="no"?>
<!DOCTYPE svg PUBLIC "-//W3C//DTD SVG 20010904//EN"
 "http://www.w3.org/TR/2001/REC-SVG-20010904/DTD/svg10.dtd">
<svg version="1.0" xmlns="http://www.w3.org/2000/svg"
 width="156.000000pt" height="45.000000pt" viewBox="0 0 156.000000 45.000000"
 preserveAspectRatio="xMidYMid meet">

<g transform="translate(0.000000,45.000000) scale(0.100000,-0.100000)"
fill="#000000" stroke="none">
<path d="M190 215 l0 -95 63 2 62 1 -50 6 c-48 6 -50 8 -53 39 -3 31 -2 32 37
32 23 0 41 5 41 10 0 6 -18 10 -40 10 -39 0 -40 1 -40 35 l0 35 50 0 c28 0 50
5 50 10 0 6 -27 10 -60 10 l-60 0 0 -95z"/>
<path d="M550 216 c0 -57 4 -96 10 -96 6 0 10 36 10 89 0 50 -4 93 -10 96 -6
4 -10 -28 -10 -89z"/>
<path d="M652 300 c-30 -13 -45 -55 -39 -110 7 -59 36 -84 89 -76 23 4 38 2
38 -4 0 -5 3 -10 8 -10 4 0 9 37 10 83 2 70 0 86 -15 99 -24 22 -63 29 -91 18z
m69 -20 c15 -9 19 -22 19 -68 0 -65 -11 -82 -51 -82 -35 0 -59 33 -59 80 0 65
41 96 91 70z"/>
<path d="M1017 303 c-4 -3 -7 -46 -7 -95 l0 -88 68 2 67 1 -55 6 c-53 6 -55 7
-55 36 0 28 3 30 43 33 54 4 55 20 0 24 -39 3 -42 5 -42 33 0 29 2 30 47 33
26 2 47 7 47 13 0 10 -103 13 -113 2z"/>
<path d="M1252 213 l2 -98 5 77 6 78 30 -55 c16 -30 32 -55 36 -55 4 0 21 24
38 53 l31 52 0 -72 c0 -42 4 -73 10 -73 6 0 10 38 10 95 0 56 -4 95 -10 95 -5
0 -21 -21 -34 -47 -43 -82 -41 -82 -76 -20 -18 32 -36 60 -41 63 -5 3 -8 -36
-7 -93z"/>
<path d="M360 210 c0 -53 4 -90 10 -90 6 0 10 16 10 35 0 32 2 35 30 35 25 0
33 -6 47 -35 9 -19 23 -35 31 -35 11 0 9 9 -8 37 -19 32 -20 37 -6 45 19 11
21 69 4 86 -7 7 -36 12 -65 12 l-53 0 0 -90z m105 35 c0 -28 -3 -30 -42 -33
l-43 -3 0 36 0 36 43 -3 c39 -3 42 -5 42 -33z"/>
<path d="M820 221 c0 -71 2 -82 22 -95 32 -23 65 -20 93 9 22 21 25 33 25 95
0 40 -4 70 -10 70 -6 0 -10 -30 -10 -69 0 -77 -13 -101 -55 -101 -39 0 -57 39
-53 110 1 33 0 60 -4 60 -5 0 -8 -36 -8 -79z"/>
</g>
</svg>
